<svg width="48" height="48" viewBox="0 0 48 48" fill="none" xmlns="http://www.w3.org/2000/svg">
<path d="M22.9158 8.87751C22.9276 8.87623 22.9393 8.87495 22.9511 8.87367C28.0276 8.68523 34.8207 9.906 38.6985 13.2568C40.7693 15.0185 42.0345 17.5464 42.2036 20.2598C42.385 22.8544 41.5364 25.4159 39.8419 27.3891C37.8497 29.6739 35.1103 30.8757 32.1651 31.1445C28.2156 31.5208 28.6156 27.9687 30.9301 26.1292C32.1195 25.2498 31.4712 23.1471 29.9951 23.4288C26.9295 24.0138 25.3956 27.4316 25.7093 30.1961C26.2402 34.8765 31.365 35.933 35.2391 35.6208C38.6966 35.3422 41.7306 33.3087 43.2405 30.185C43.4145 29.8275 43.609 29.2037 43.8663 28.9156C44.5283 28.1746 45.689 28.0721 46.4283 28.7713C47.4323 29.7196 46.8168 31.0407 46.3091 32.0548C43.9718 36.7225 39.1473 39.2172 34.0267 39.1431C30.5611 39.0928 27.0438 38.1791 24.5339 35.6799C24.3774 35.5283 24.1741 35.2885 24.0237 35.1207C19.8124 40.1909 9.88131 40.3739 5.06423 36.1943C3.30109 34.6645 1.5575 32.5812 1.05748 30.2225C0.868143 29.3294 1.83211 28.2373 2.7379 28.2988C4.08367 28.3198 4.30786 29.1433 4.76899 30.1451C4.92046 30.467 5.08999 30.7801 5.27682 31.0829C7.19156 34.2435 10.7692 35.8209 14.3864 35.6807C16.7204 35.5663 19.3922 35.0134 21.0139 33.2284C23.173 30.8517 22.6872 26.6297 20.2975 24.5893C19.6537 24.0397 18.7212 23.3822 17.8318 23.4186C17.1017 23.4774 16.5097 23.9465 16.4699 24.711C16.4141 25.7764 17.4072 26.3564 18.0198 27.1011C19.2955 28.6516 19.2446 31.0541 16.7403 31.1542C14.6432 31.238 12.4306 30.5369 10.6499 29.4511C7.71368 27.6609 5.96624 24.7349 5.82073 21.2953C5.72155 18.6395 6.67309 16.0516 8.46916 14.0927C11.8321 10.4478 18.1607 9.06159 22.9158 8.87751Z" fill="#F25421"/>
</svg>
